<svg xmlns="http://www.w3.org/2000/svg">
  <symbol id="icon-cloud-bolt-moon" viewBox="0 0 576 512">
    <path d="M272 352H179.25L268.031 250.531C273.875 243.875 273.188 233.781 266.531 227.969C259.906 222.156 249.781 222.781 243.969 229.469L131.969 357.469C127.813 362.188 126.844 368.906 129.438 374.625S137.719 384 144 384H236.75L147.969 485.469C142.125 492.125 142.812 502.219 149.469 508.031C152.5 510.688 156.25 512 160 512C164.438 512 168.875 510.156 172.031 506.531L284.031 378.531C288.188 373.813 289.156 367.094 286.563 361.375S278.281 352 272 352ZM573.889 237.5C570.264 229.75 562.389 224.875 554.014 224.875C548.824 224.875 543.959 227.125 530.889 227.125C476.512 227.125 432.262 183.125 432.262 128.875C432.262 93.75 451.387 61 482.262 43.625C490.512 39 494.762 30 493.262 20.75C491.637 11.5 484.762 4.5 475.387 2.75C465.762 0.875 455.762 0 446.01 0C378.885 0 322.383 41.375 298.258 99.5C308.508 102 318.258 105.75 327.258 110.875C346.383 65.25 391.26 32.875 443.762 32C416.51 56.375 400.26 91.625 400.26 128.75C400.26 199.5 457.262 257.25 527.887 258.875C505.637 277.125 477.637 287.25 448.137 287.75V287.875C448.137 298.875 446.637 309.625 444.012 319.75C462.453 319.75 524.205 317.984 571.139 260.75C576.389 254.25 577.514 245.25 573.889 237.5ZM351.25 197.25C346 158.25 312.5 128 272 128C263.375 128 255 129.375 246.75 132.25C227.125 109.375 198.625 96 168 96C111.5 96 65.25 141.25 64 197.625C26.25 210.875 0 246.875 0 288C0 334.475 33.314 373.414 77.283 382.164C87.014 384.1 96 376.281 96 366.357V365.811C96 358.477 91.07 351.844 83.9 350.301C57.539 344.625 36.037 323.748 32.531 296.297C28.182 262.252 51.047 231.514 84 225.25L84.5 225.15C92.418 223.574 97.814 216.174 96.92 208.15C96.396 203.465 96.566 205.68 96.16 197.74C97.354 159.035 129.131 128 168.125 128C192.375 128 214.875 140.25 228.25 160.75L228.518 161.16C232.967 167.98 241.92 170.221 249.059 166.299L249.375 166.125C282.125 148.25 320.125 174.25 320.25 206.5L320.199 209.758C320.084 217.279 325.369 223.803 332.75 225.25C362.625 231.25 384.125 257.625 384.125 288C384.016 318.99 361.781 344.955 332.457 350.779C325.131 352.234 320 358.889 320 366.357C320 376.281 328.986 384.1 338.717 382.164C382.686 373.414 416 334.475 416 288C416 246.75 389.375 210.375 351.25 197.25Z"/>
  </symbol>

  <symbol id="icon-cloud-bolt-sun" viewBox="0 0 640 512">
    <path d="M496 352H403.266L492.047 250.531C497.859 243.875 497.188 233.781 490.531 227.969C483.891 222.125 473.797 222.75 467.953 229.469L355.953 357.469C351.828 362.188 350.828 368.906 353.438 374.625C356.031 380.344 361.719 384 368 384H460.734L371.953 485.469C366.141 492.125 366.812 502.219 373.469 508.031C376.5 510.688 380.25 512 384 512C388.453 512 392.875 510.156 396.047 506.531L508.047 378.531C512.172 373.813 513.172 367.094 510.562 361.375C507.969 355.656 502.281 352 496 352ZM575.25 197.25C570 158.25 536.5 128 496 128C487.375 128 479 129.375 470.75 132.25C451.125 109.375 422.625 96 392 96C335.5 96 289.25 141.25 288 197.625C250.25 210.875 224 246.875 224 288C224 334.473 257.314 373.414 301.283 382.162C311.016 384.1 320 376.279 320 366.357V365.811C320 358.477 315.072 351.844 307.9 350.299C281.539 344.625 260.037 323.748 256.531 296.297C252.182 262.252 275.047 231.514 308 225.25L308.5 225.15C316.418 223.572 321.814 216.172 320.92 208.148C320.398 203.465 320.568 205.68 320.16 197.74C321.354 159.035 353.131 128 392.125 128C416.375 128 438.875 140.25 452.25 160.75L452.541 161.197C456.979 167.996 465.904 170.23 473.02 166.32L473.375 166.125C506.125 148.25 544.125 174.25 544.25 206.5L544.199 209.758C544.084 217.279 549.369 223.803 556.75 225.25C586.625 231.25 608.125 257.625 608.125 288C608.016 318.988 585.781 344.955 556.457 350.779C549.131 352.234 544 358.889 544 366.357C544 376.279 552.986 384.1 562.717 382.162C606.686 373.414 640 334.473 640 288C640 246.75 613.375 210.375 575.25 197.25ZM160.25 291.75C156.75 286.375 150.375 283.625 143.875 284.875L87.875 296L99 240C100.25 233.625 97.625 227.25 92.25 223.625L44.75 191.75L92.25 160C97.625 156.375 100.25 149.875 99 143.625L87.875 87.625L143.875 98.75C150.375 100 156.75 97.25 160.25 91.875L192 44.375L223.75 91.875C227.375 97.25 233.75 100 240.25 98.75L319.625 83C328.25 81.25 333.875 72.875 332.25 64.25C330.5 55.5 321.875 49.75 313.375 51.625L244.5 65.25L205.25 6.75C199.375 -2.25 184.75 -2.25 178.75 6.75L139.625 65.25L70.625 51.5C65.25 50.375 59.875 52.125 56.25 55.875C52.375 59.75 50.75 65.125 51.75 70.375L65.5 139.375L7.125 178.5C2.75 181.5 0 186.375 0 191.75S2.75 202.125 7.125 205.125L65.5 244.25L51.75 313.25C50.75 318.5 52.375 323.875 56.25 327.75C60 331.5 65.25 333.25 70.625 332.125L139.5 318.375L178.625 376.875C181.75 381.5 186.75 384 191.875 384C195 384 198.125 383.125 200.75 381.25C208.125 376.375 210.125 366.375 205.25 359.125L160.25 291.75ZM192 140C218.375 140 240 160 243.125 185.625C247.875 182 252.875 178.75 258.25 175.75C259.75 167.25 262.125 159.25 265 151.375C250.75 125.75 223.5 108 192 108C145.75 108 108.25 145.625 108.25 191.75C108.25 238 145.75 275.625 192 275.625C192.25 275.625 192.625 275.5 192.875 275.5C194 264.125 196.625 253.125 200.625 242.75C197.75 243.25 195 243.625 192.125 243.625C163.625 243.625 140.375 220.375 140.375 191.875C140.25 163.25 163.5 140 192 140Z"/>
  </symbol>

  <symbol id="icon-cloud-drizzle" viewBox="0 0 512 512">
    <path d="M48 360C39.25 360 32 367.25 32 376V416C32 424.75 39.25 432 48 432S64 424.75 64 416V376C64 367.25 56.75 360 48 360ZM240 360C231.25 360 224 367.25 224 376V416C224 424.75 231.25 432 240 432S256 424.75 256 416V376C256 367.25 248.75 360 240 360ZM144 440C135.25 440 128 447.25 128 456V496C128 504.75 135.25 512 144 512S160 504.75 160 496V456C160 447.25 152.75 440 144 440ZM432 360C423.25 360 416 367.25 416 376V416C416 424.75 423.25 432 432 432S448 424.75 448 416V376C448 367.25 440.75 360 432 360ZM336 440C327.25 440 320 447.25 320 456V496C320 504.75 327.25 512 336 512S352 504.75 352 496V456C352 447.25 344.75 440 336 440ZM414.688 112.219C407.156 66.75 367.562 32 320 32C301.031 32 282.906 37.469 267.406 47.688C246.688 18.219 212.594 0 176 0C114.25 0 64 50.25 64 112C64 114.719 64.094 117.438 64.312 120.188C25.844 136.062 0 173.656 0 216C0 273.344 46.656 320 104 320H408C465.344 320 512 273.344 512 216C512 160.906 468.938 115.688 414.688 112.219ZM408 288H104C64.312 288 32 255.688 32 216C32 183.406 54.188 154.875 85.969 146.625C94.187 144.469 99.312 136.281 97.625 127.969C96.562 122.781 96 117.469 96 112C96 67.875 131.875 32 176 32C206.969 32 235.406 50.312 248.469 78.625C250.656 83.406 255.062 86.812 260.25 87.687C265.438 88.781 270.719 86.937 274.406 83.156C286.562 70.812 302.75 64 320 64C355.281 64 384 92.719 384 128C384 136.844 391.156 144 400 144H408C447.688 144 480 176.312 480 216S447.688 288 408 288Z"/>
  </symbol>

  <symbol id="icon-cloud-fog" viewBox="0 0 640 512">
    <path d="M168 320H472C529.25 320 576 273.25 576 216C576 161.25 533.375 116.25 479.75 112.25C475.75 67.375 437.875 32 392 32C374.25 32 357.25 37.25 342.75 47.25C320.25 17.75 285.5 0 248 0C181.75 0 128 53.75 128 120V120.375C89.75 136.375 64 173.875 64 216C64 273.25 110.75 320 168 320ZM149.25 146.75L149.262 146.748C156.928 144.742 161.947 137.398 161.035 129.527C160.352 123.635 160 122.967 160 120C160 71.5 199.5 32 248 32C280.25 32 309.75 49.875 325.25 78.75L325.256 78.76C330.379 88.459 343.555 90.182 351 82.125C363.771 68.326 381.543 61.939 400.264 64.588C425.613 68.172 444.584 89.902 447.602 115.324C448.232 120.633 448.115 120.391 447.25 126.875L447.227 127.07C445.959 137.209 454.443 145.895 464.609 144.867C470.24 144.299 469.818 144.125 472 144.125C511.75 144.125 544 176.375 544 216.125C544 255.75 511.75 288.125 472 288.125H168C128.25 288.125 96 255.75 96 216.125C96 183.75 117.875 155.25 149.25 146.75ZM208 480H80C71.201 480 64 487.199 64 496S71.201 512 80 512H208C216.801 512 224 504.801 224 496S216.801 480 208 480ZM624 480H304C295.201 480 288 487.199 288 496S295.201 512 304 512H624C632.801 512 640 504.801 640 496S632.801 480 624 480ZM576 400C576 391.199 568.801 384 560 384H16C7.201 384 0 391.199 0 400S7.201 416 16 416H560C568.801 416 576 408.801 576 400Z"/>
  </symbol>

  <symbol id="icon-cloud-hail" viewBox="0 0 512 512">
    <path d="M56 464C42.75 464 32 474.75 32 488S42.75 512 56 512S80 501.25 80 488S69.25 464 56 464ZM184 464C170.75 464 160 474.75 160 488S170.75 512 184 512S208 501.25 208 488S197.25 464 184 464ZM248 368C234.75 368 224 378.75 224 392S234.75 416 248 416S272 405.25 272 392S261.25 368 248 368ZM120 368C106.75 368 96 378.75 96 392S106.75 416 120 416S144 405.25 144 392S133.25 368 120 368ZM376 368C362.75 368 352 378.75 352 392S362.75 416 376 416S400 405.25 400 392S389.25 368 376 368ZM312 464C298.75 464 288 474.75 288 488S298.75 512 312 512S336 501.25 336 488S325.25 464 312 464ZM414.688 112.219C407.156 66.75 367.562 32 320 32C301.031 32 282.906 37.469 267.406 47.688C246.688 18.219 212.594 0 176 0C114.25 0 64 50.25 64 112C64 114.719 64.094 117.438 64.312 120.188C25.844 136.062 0 173.656 0 216C0 273.344 46.656 320 104 320H408C465.344 320 512 273.344 512 216C512 160.906 468.938 115.688 414.688 112.219ZM408 288H104C64.312 288 32 255.688 32 216C32 183.406 54.188 154.875 85.969 146.625C94.187 144.469 99.312 136.281 97.625 127.969C96.562 122.781 96 117.469 96 112C96 67.875 131.875 32 176 32C206.969 32 235.406 50.312 248.469 78.625C250.656 83.406 255.062 86.812 260.25 87.687C265.438 88.781 270.719 86.937 274.406 83.156C286.562 70.812 302.75 64 320 64C355.281 64 384 92.719 384 128C384 136.844 391.156 144 400 144H408C447.688 144 480 176.312 480 216S447.688 288 408 288Z"/>
  </symbol>

  <symbol id="icon-cloud-moon-rain" viewBox="0 0 576 512">
    <path d="M266.256 418.125C258.631 413.75 248.756 416.25 244.381 424.125L207.755 488.125C203.38 495.75 206.13 505.5 213.755 509.875C216.255 511.25 219.005 512 221.755 512C227.255 512 232.631 509.125 235.631 503.875L272.257 439.875C276.632 432.25 273.882 422.5 266.256 418.125ZM170.254 418.125C162.629 413.75 152.754 416.25 148.378 424.125L111.753 488.125C107.377 495.75 110.127 505.5 117.753 509.875C120.253 511.25 123.003 512 125.753 512C131.253 512 136.628 509.125 139.628 503.875L176.254 439.875C180.629 432.25 177.879 422.5 170.254 418.125ZM74.252 418.125C66.626 413.75 56.751 416.25 52.376 424.125L15.75 488.125C11.375 495.75 14.125 505.5 21.75 509.875C24.25 511.25 27 512 29.751 512C35.251 512 40.626 509.125 43.626 503.875L80.252 439.875C84.627 432.25 81.877 422.5 74.252 418.125ZM351.259 197.25C346.008 158.25 312.508 128 272.007 128C263.381 128 255.006 129.375 246.756 132.25C227.13 109.25 198.63 96 168.004 96C111.503 96 65.251 141.25 64.001 197.625C26.25 210.875 0 246.875 0 288C0 340.875 43.126 384 96.002 384H320.008C372.884 384 416.01 340.875 416.01 288C416.01 286.75 415.76 285.375 415.76 284C414.01 244.375 388.259 210 351.259 197.25ZM320.008 352H98.289C65.705 352 36.66 328.619 32.531 296.298C28.183 262.252 51.049 231.514 84.002 225.25L84.483 225.155C92.416 223.582 97.813 216.145 96.898 208.109C95.938 199.671 96.171 201.837 96.117 198.936C95.705 176.808 105.336 155.172 123.516 142.551C161.569 116.134 206.73 127.758 228.255 160.75L228.523 161.161C232.955 167.979 241.894 170.229 249.025 166.32L249.381 166.125C282.132 148.25 320.133 174.25 320.258 206.5L320.208 209.758C320.092 217.279 325.377 223.803 332.758 225.25C362.634 231.25 384.134 257.625 384.134 288C384.009 323.25 355.259 352 320.008 352ZM362.259 418.125C354.634 413.75 344.758 416.25 340.383 424.125L303.757 488.125C299.382 495.75 302.132 505.5 309.758 509.875C312.258 511.25 315.008 512 317.758 512C323.258 512 328.633 509.125 331.633 503.875L368.259 439.875C372.634 432.25 369.884 422.5 362.259 418.125ZM573.889 237.5C570.264 229.75 562.389 224.875 554.013 224.875C548.823 224.875 543.958 227.125 530.888 227.125C476.512 227.125 432.261 183.125 432.261 128.875C432.261 93.75 451.386 61 482.262 43.625C490.512 39 494.762 30 493.262 20.75C491.637 11.5 484.762 4.5 475.387 2.75C465.761 0.875 455.761 0 446.01 0C378.884 0 322.383 41.375 298.257 99.5C308.507 102 318.258 105.75 327.258 110.875C346.383 65.25 391.26 32.875 443.761 32C416.51 56.375 400.26 91.625 400.26 128.75C400.26 199.5 457.261 257.25 527.888 258.875C505.637 277.125 477.637 287.25 448.136 287.75V287.875C448.136 298.875 446.636 309.625 444.011 319.75C462.453 319.75 524.206 317.984 571.139 260.75C576.389 254.25 577.514 245.25 573.889 237.5Z"/>
  </symbol>

  <symbol id="icon-cloud-rain" viewBox="0 0 512 512">
    <path d="M414.688 112.219C407.156 66.75 367.562 32 320 32C301.031 32 282.906 37.469 267.406 47.688C246.688 18.219 212.594 0 176 0C114.25 0 64 50.25 64 112C64 114.719 64.094 117.438 64.312 120.188C25.844 136.062 0 173.656 0 216C0 273.344 46.656 320 104 320H408C465.344 320 512 273.344 512 216C512 160.906 468.938 115.688 414.688 112.219ZM408 288H104C64.312 288 32 255.688 32 216C32 183.406 54.188 154.875 85.969 146.625C94.187 144.469 99.312 136.281 97.625 127.969C96.562 122.781 96 117.469 96 112C96 67.875 131.875 32 176 32C206.969 32 235.406 50.312 248.469 78.625C250.656 83.406 255.062 86.812 260.25 87.687C265.438 88.781 270.719 86.937 274.406 83.156C286.562 70.812 302.75 64 320 64C355.281 64 384 92.719 384 128C384 136.844 391.156 144 400 144H408C447.688 144 480 176.312 480 216S447.688 288 408 288ZM242.844 358.906C232.156 374.375 197.344 426.844 197.344 453.344C197.344 485.688 223.656 512 256 512S314.656 485.688 314.656 453.344C314.656 426.844 279.844 374.375 269.156 358.906C263.219 350.281 248.781 350.281 242.844 358.906ZM256 480C241.312 480 229.344 468.031 229.344 453.344C229.344 444.781 241.594 420.656 256 397.281C270.406 420.656 282.656 444.781 282.656 453.344C282.656 468.031 270.688 480 256 480ZM82.844 358.906C72.156 374.375 37.344 426.844 37.344 453.344C37.344 485.688 63.656 512 96 512S154.656 485.688 154.656 453.344C154.656 426.844 119.844 374.375 109.156 358.906C103.219 350.281 88.781 350.281 82.844 358.906ZM96 480C81.312 480 69.344 468.031 69.344 453.344C69.344 444.781 81.594 420.656 96 397.281C110.406 420.656 122.656 444.781 122.656 453.344C122.656 468.031 110.688 480 96 480ZM402.844 358.906C392.156 374.375 357.344 426.844 357.344 453.344C357.344 485.688 383.656 512 416 512S474.656 485.688 474.656 453.344C474.656 426.844 439.844 374.375 429.156 358.906C423.219 350.281 408.781 350.281 402.844 358.906ZM416 480C401.312 480 389.344 468.031 389.344 453.344C389.344 444.781 401.594 420.656 416 397.281C430.406 420.656 442.656 444.781 442.656 453.344C442.656 468.031 430.688 480 416 480Z"/>
  </symbol>

  <symbol id="icon-cloud-showers-heavy" viewBox="0 0 512 512">
    <path d="M414.694 112.219C407.162 66.75 367.569 32 320.006 32C301.037 32 282.912 37.469 267.412 47.688C246.694 18.219 212.6 0 176.006 0C114.256 0 64.006 50.25 64.006 112C64.006 114.719 64.1 117.438 64.319 120.188C25.85 136.062 0.006 173.656 0.006 216C0.006 273.344 46.662 320 104.006 320H408.006C465.35 320 512.006 273.344 512.006 216C512.006 160.906 468.944 115.688 414.694 112.219ZM408.006 288H104.006C64.319 288 32.006 255.688 32.006 216C32.006 183.406 54.194 154.875 85.975 146.625C94.194 144.469 99.319 136.281 97.631 127.969C96.569 122.781 96.006 117.469 96.006 112C96.006 67.875 131.881 32 176.006 32C206.975 32 235.412 50.312 248.475 78.625C250.662 83.406 255.069 86.812 260.256 87.687C265.444 88.781 270.725 86.937 274.412 83.156C286.569 70.812 302.756 64 320.006 64C355.287 64 384.006 92.719 384.006 128C384.006 136.844 391.162 144 400.006 144H408.006C447.694 144 480.006 176.312 480.006 216S447.694 288 408.006 288ZM439.162 353.688C431.24 349.719 421.662 352.969 417.694 360.844L353.694 488.844C349.74 496.75 352.944 506.344 360.85 510.312C363.147 511.469 365.584 512 367.99 512C373.865 512 379.506 508.75 382.319 503.156L446.319 375.156C450.272 367.25 447.069 357.656 439.162 353.688ZM321.834 353.688C313.912 349.719 304.334 352.969 300.365 360.844L236.365 488.844C232.412 496.75 235.615 506.344 243.522 510.312C245.819 511.469 248.256 512 250.662 512C256.537 512 262.178 508.75 264.99 503.156L328.99 375.156C332.944 367.25 329.74 357.656 321.834 353.688ZM204.49 353.688C196.569 349.719 186.99 352.969 183.022 360.844L119.022 488.844C115.069 496.75 118.272 506.344 126.178 510.312C128.475 511.469 130.912 512 133.319 512C139.194 512 144.834 508.75 147.647 503.156L211.647 375.156C215.6 367.25 212.397 357.656 204.49 353.688ZM87.162 353.688C79.24 349.719 69.662 352.969 65.694 360.844L1.694 488.844C-2.26 496.75 0.944 506.344 8.85 510.312C11.147 511.469 13.584 512 15.99 512C21.865 512 27.506 508.75 30.319 503.156L94.319 375.156C98.272 367.25 95.069 357.656 87.162 353.688Z"/>
  </symbol>

  <symbol id="icon-cloud-sun-rain" viewBox="0 0 640 512">
    <path d="M306.335 432.061C306.335 425.649 301.293 415.986 290.243 415.986C284.705 415.986 279.306 418.849 276.375 424.125L239.75 488.125C238.335 490.592 237.665 493.282 237.665 495.939C237.665 502.006 242.433 512 253.75 512C259.25 512 264.625 509.125 267.625 503.875L304.25 439.875C305.665 437.408 306.335 434.718 306.335 432.061ZM140.375 191.645C140.375 163.126 163.576 140 192 140C218.375 140 240 160 243.125 185.625C247.875 182 252.875 178.75 258.25 175.75C259.75 167.25 262.124 159.25 265 151.375C250.75 125.75 223.5 108 192 108C145.75 108 108.25 145.625 108.25 191.75C108.25 238 145.75 275.625 192 275.625C192.25 275.625 192.625 275.5 192.875 275.5C194 264.125 196.625 253.125 200.625 242.75C197.75 243.25 195 243.625 192.125 243.625C164.021 243.625 140.375 220.86 140.375 191.645ZM160.25 291.75C157.312 287.239 152.35 284.577 146.987 284.577C145.961 284.577 144.919 284.674 143.875 284.875L87.875 296L99 240C99.207 238.947 99.307 237.893 99.307 236.852C99.307 231.593 96.737 226.651 92.25 223.625L44.75 191.75L92.25 160C96.737 156.974 99.307 151.945 99.307 146.73C99.307 145.697 99.207 144.658 99 143.625L87.875 87.625L143.875 98.75C144.919 98.951 145.961 99.048 146.987 99.048C152.35 99.048 157.312 96.386 160.25 91.875L192 44.375L223.75 91.875C226.793 96.386 231.772 99.048 237.137 99.048C238.164 99.048 239.206 98.951 240.25 98.75L319.625 83C327.249 81.453 332.529 74.729 332.529 67.232C332.529 57.795 324.534 51.27 316.628 51.27C315.552 51.27 314.462 51.385 313.375 51.625L244.5 65.25L205.25 6.75C202.312 2.25 197.188 0 192.047 0S181.75 2.25 178.75 6.75L139.625 65.25L70.625 51.5C69.54 51.273 68.455 51.163 67.385 51.163C63.151 51.163 59.143 52.882 56.25 55.875C53.123 59.002 51.462 63.105 51.462 67.331C51.462 68.342 51.557 69.361 51.75 70.375L65.5 139.375L7.125 178.5C2.75 181.5 0 186.375 0 191.75C0 197.125 2.75 202.125 7.125 205.125L65.5 244.25L51.75 313.25C51.557 314.264 51.462 315.283 51.462 316.294C51.462 325.245 58.867 332.462 67.397 332.462C68.46 332.462 69.54 332.352 70.625 332.125L139.5 318.375L178.625 376.875C181.75 381.5 186.75 384 191.875 384C195 384 198.125 383.125 200.75 381.25C205.4 378.176 207.914 373.064 207.914 367.889C207.914 364.857 207.051 361.803 205.25 359.125L160.25 291.75ZM498.335 432.061C498.335 425.649 493.293 415.986 482.243 415.986C476.705 415.986 471.306 418.849 468.375 424.125L431.75 488.125C430.334 490.592 429.665 493.282 429.665 495.94C429.665 502.007 434.434 512 445.75 512C451.25 512 456.625 509.125 459.625 503.875L496.25 439.875C497.665 437.408 498.335 434.718 498.335 432.061ZM575.25 197.25C570 158.25 536.5 128 496 128C487.375 128 479 129.375 470.75 132.25C451.125 109.375 422.625 96 392 96C335.5 96 289.25 141.25 288 197.625C250.25 210.875 224 246.875 224 288C224 340.875 267.125 384 320 384H544C596.875 384 640 340.875 640 288C640 246.75 613.375 210.375 575.25 197.25ZM544 352L322.287 352C310.47 352 256 342.348 256 288C256 257.375 277.75 231 308 225.25L308.499 225.151C315.843 223.695 321.02 217.249 321.02 209.92C321.02 207.626 320.737 209.015 320.16 197.742C321.354 159.036 353.131 128 392.125 128C416.375 128 438.875 140.25 452.25 160.75L452.517 161.161C455.48 165.719 460.456 168.235 465.56 168.235C468.091 168.235 470.654 167.616 473.019 166.32L473.375 166.125C480.76 162.094 488.413 160.294 495.837 160.294C521.337 160.294 544.153 181.523 544.25 206.5L544.2 209.759C544.199 209.84 544.198 209.92 544.198 210.001C544.198 217.419 549.449 223.818 556.75 225.25L556.75 225.25C586.625 231.25 608.125 257.625 608.125 288C608 323.25 579.25 352 544 352ZM594.335 432.061C594.335 425.649 589.293 415.986 578.243 415.986C572.705 415.986 567.306 418.849 564.375 424.125L527.75 488.125C526.334 490.592 525.665 493.282 525.665 495.94C525.665 502.007 530.434 512 541.75 512C547.25 512 552.625 509.125 555.625 503.875L592.25 439.875C593.666 437.408 594.335 434.718 594.335 432.061ZM402.335 432.061C402.335 425.649 397.293 415.986 386.243 415.986C380.705 415.986 375.306 418.849 372.375 424.125L335.75 488.125C334.334 490.592 333.665 493.282 333.665 495.94C333.665 502.007 338.434 512 349.75 512C355.25 512 360.625 509.125 363.625 503.875L400.25 439.875C401.665 437.408 402.335 434.718 402.335 432.061Z "/>
  </symbol>

  <symbol id="icon-clouds-moon" viewBox="0 0 640 512">
    <path d="M446.484 321.164C439.494 284.121 406.894 256.02 367.853 256.02C355.826 256.02 344.203 258.707 333.529 263.887C315.668 239.191 286.822 224 255.939 224C202.994 224 159.918 267.082 159.918 320.035C159.918 321.844 159.982 323.676 160.111 325.543C122.185 338.699 95.896 374.613 95.896 415.965C95.896 468.918 138.97 512 191.918 512H432.001C484.88 512 527.9 468.977 527.9 416.09C527.9 368.102 492.525 328.219 446.484 321.164ZM432.001 480H194.199C161.308 480 132.097 456.16 128.33 423.486C124.388 389.299 147.714 358.988 180.664 353.18L180.806 353.152C189.757 351.523 195.584 342.811 193.669 333.918C192.544 328.914 191.918 324.289 191.918 320.035C191.918 284.641 220.677 256 255.939 256C280.574 256 303.207 270.508 313.71 293.02C318.033 302.363 329.98 305.166 338.005 298.719L338.093 298.648C350.982 288.336 367.386 285.35 382.935 290.471C403.031 297.09 415.871 316.854 415.871 338.014V338.301C415.871 345.896 422.029 352.055 429.625 352.055C461.791 352.055 490.644 374.801 495.218 406.639C500.888 446.096 470.367 480 432.001 480ZM95.996 320C59.269 320 29.597 288.787 32.15 251.531C34.478 217.58 64.275 192 98.306 192H113.753C121.3 192 127.793 186.656 129.244 179.25C135.244 149.5 161.744 128 191.992 128H192.007C222.253 128 248.753 149.5 254.753 179.25C256.205 186.656 262.697 192 270.244 192H288.001C312.607 192 333.798 206.164 344.501 226.613C352.121 224.973 359.9 224.02 367.853 224.02C371.412 224.02 374.859 224.492 378.343 224.82C365.302 187.262 329.906 160 288.001 160H282.501C269.251 122.25 233.003 96 192.007 96H191.992C150.994 96 114.746 122.25 101.496 160H98.869C48.076 160 3.933 198.258 0.257 248.918C-3.457 300.123 33.496 343.359 81.943 350.578C88.793 339.078 97.574 328.859 107.685 320H95.996ZM636.646 248.094C631.552 239.688 622.148 235.406 612.445 237.344C581.445 243.156 549.929 235.062 525.882 215.094C502.101 195.375 488.46 166.469 488.46 135.719C488.46 98.594 508.664 64.125 541.07 45.844C549.742 41.062 554.304 31.656 552.679 21.875C551.054 12.062 543.679 4.625 534.117 2.906C524.148 0.969 513.695 0 503.07 0C420.564 0 351.822 58.918 336.939 137.922C347.693 142.438 357.746 148.414 366.863 155.641C373.668 85.855 433.794 31.352 505.085 32C474.632 57.5 456.46 95.406 456.46 135.719C456.46 176 474.32 213.937 505.46 239.75C530.445 260.438 561.117 271.75 593.664 271.188C572.695 289.469 546.71 300.938 518.617 304.094L497.007 306.445C509.41 313.898 520.367 323.32 529.584 334.336C570.845 327.844 608.06 307.195 634.724 274.625C640.974 266.938 641.74 256.531 636.646 248.094Z"/>
  </symbol>

  <symbol id="icon-clouds-sun" viewBox="0 0 640 512">
    <path d="M138.329 314.2L92.625 323.25L105.125 260C106.25 253.75 103.75 247.25 98.25 243.5L44.75 207.75L98.25 171.875C103.75 168.25 106.25 161.75 105.125 155.375L92.625 92.25L155.75 104.75C162.25 106 168.625 103.25 172.25 97.875L208 44.375L243.75 98C247.375 103.25 253.75 106.125 260.25 104.75L323.375 92.25L316.118 128.908C313.898 140.121 324.349 149.7 335.327 146.516L335.327 146.516C340.675 144.964 344.753 140.621 345.964 135.186L359.375 75C360.375 69.75 358.75 64.375 355 60.625C351.25 56.75 346 55.125 340.625 56.25L264.375 71.25L221.25 6.75C215.25 -2.25 200.75 -2.25 194.75 6.75L151.5 71.25L75.25 56.125C70 55 64.75 56.75 60.875 60.5C57.125 64.25 55.5 69.75 56.5 74.875L71.625 151.25L7.125 194.375C2.75 197.375 0 202.375 0 207.75C0 213 2.75 218 7.125 221L71.625 264.25L56.5 340.375C55.5 345.75 57.125 351.125 60.875 354.75C64.75 358.5 70.125 360.25 75.25 359.25L144.488 346.791C153.18 345.227 159.121 337.126 158.002 328.366V328.366C156.784 318.838 147.752 312.334 138.329 314.2ZM208 149.75C236.75 149.75 260.5 171 264.875 198.625C267.25 197.75 269.75 196.75 272.25 196.25C277.25 187.25 283.375 179.125 290.25 171.75C276.25 140 244.75 117.75 208 117.75C158.5 117.75 118.25 158.125 118.25 207.75C118.25 247.25 143.875 280.375 179.25 292.5C179.319 292.194 183.008 276.484 189.875 262.375C166.875 254.75 150.125 233.25 150.125 207.75C150.25 175.75 176.125 149.75 208 149.75ZM550.375 164.75H549.875C533.25 124.125 494.625 95.625 450.5 95.625C404.125 95.625 364.25 125.75 349 169.75C335.533 174.484 323.74 182.625 314.057 192.961C328.066 194.078 341.672 197.234 354.408 202.75C356.538 201.723 358.715 200.786 360.946 199.978C369.396 196.918 375.921 190.088 378.792 181.572C389.395 150.126 417.317 127.625 450.375 127.625C482.358 127.625 509.399 148.489 520.75 178.163C525.296 190.048 537.267 196.828 549.991 196.751C550.078 196.75 550.164 196.75 550.25 196.75C582.125 196.75 607.875 224.25 607.875 258.25C607.984 288.023 588.256 312.805 561.945 318.508C570.867 326.059 578.787 334.648 585.383 344.289C617.439 330.055 640 296.938 640 258.25C640 206.75 599.75 164.75 550.375 164.75ZM494.617 321.164C487.627 284.125 455.037 256.02 416.006 256.02C403.984 256.02 392.367 258.703 381.699 263.883C363.846 239.188 335.01 224 304.135 224C251.201 224 208.137 267.082 208.137 320.035C208.137 321.844 208.201 323.68 208.33 325.547C170.418 338.703 144.141 374.617 144.141 415.965C144.141 468.918 187.205 512 240.137 512H480.129C532.992 512 576 468.977 576 416.09C576 368.105 540.637 328.23 494.617 321.164ZM480.129 480L242.437 480C209.549 480 180.341 456.162 176.575 423.489C172.634 389.301 195.949 358.989 228.887 353.18C239.969 351.162 244.027 343.858 242.404 336.321C241.254 330.978 240.137 326.082 240.137 320.035C240.137 284.641 268.887 256 304.135 256C328.758 256 351.383 270.508 361.883 293.02C367.215 304.553 376.273 306.672 386.256 298.648C399.143 288.333 415.555 285.347 431.099 290.477C451.181 297.104 464.004 316.865 464.004 338.012V338.328C464.004 345.909 470.15 352.055 477.731 352.055H477.731C509.895 352.055 538.748 374.802 543.32 406.64C548.986 446.097 518.479 480 480.129 480Z"/>
  </symbol>

  <symbol id="icon-clouds" viewBox="0 0 640 512">
    <path d="M543.676 304.406C539.813 259.426 501.965 224 456 224C438.082 224 421.149 229.273 406.783 239.117C384.19 209.617 349.385 192 312 192C245.832 192 192 245.832 192 312C192 312.102 192 312.203 192.002 312.301C153.645 328.367 128 365.945 128 408C128 465.348 174.654 512 232 512H536C593.346 512 640 465.402 640 408.125C640 353.359 597.453 308.344 543.676 304.406ZM536 480H234.877C201.561 480 170.783 458.637 162.381 426.396C152.145 387.117 176.002 348.84 213.25 338.75C220.945 336.736 225.944 329.34 225.024 321.441C224.135 313.795 223.813 315.037 224.106 308.27C225.445 277.432 242.217 248.59 269.682 234.506C316.231 210.639 367.072 229.434 389.25 270.75C397.619 286.592 411.176 278.262 413.848 275.371C422.963 265.51 435.01 258.479 448.309 256.602C486.879 251.152 515.506 285.277 511.006 320.918L510.922 321.586C509.805 330.437 517.225 338.021 526.098 337.096C566.162 332.924 603.934 361.15 607.678 401.258C611.664 443.953 578.022 480 536 480ZM168 272C168 263.163 160.837 256 152 256H97.222C65.611 256 36.873 233.749 32.594 202.431C27.965 168.55 50.916 138.222 83.75 132.75C90.838 131.568 96.262 125.795 96.998 118.648L97 118.625C102 69.25 142.75 32 192 32C231.5 32 267.5 57 281.625 94.25L281.654 94.324C284.887 102.945 294.735 107.039 303.125 103.25C314.159 98.316 325.599 95.811 337.303 96.011C357.934 96.365 377.201 106.875 391.228 122.008C409.9 142.152 415.862 159.851 415.853 176H416C416 184.837 423.164 192 432 192C440.837 192 448 184.837 448 176C448 114.25 397.75 64 336 64C325.5 64 315.125 65.5 305 68.5C283 27 239.375 0 192 0C130.25 0 78.25 43.875 66.875 103.75C24.076 116.658 -4.692 158.217 0.634 204.827C6.132 252.945 49.282 288 97.714 288H152C160.837 288 168 280.836 168 272Z"/>
  </symbol>

  <symbol id="icon-heat" viewBox="0 0 448 512">
    <path d="M192 153.625V48C192 39.125 184.875 32 176 32S160 39.125 160 48V152.25C160 201.5 177.875 249 210.25 286C238.5 318.25 256 358.375 256 401.25V464C256 472.875 263.125 480 272 480S288 472.875 288 464V402.375C288 353.25 270.125 305.75 237.75 268.75C209.5 236.5 192 196.375 192 153.625ZM64 132.375V112C64 103.125 56.875 96 48 96S32 103.125 32 112V128C32.125 182.875 49.75 236.25 82.25 280.375C110.625 318.625 128 364 128 411.625V464C128 472.875 135.125 480 144 480S160 472.875 160 464V416C159.875 361.125 142.25 307.75 109.75 263.625C81.375 225.375 64 180 64 132.375ZM365.75 263.625C337.375 225.375 320 180 320 132.375V112C320 103.125 312.875 96 304 96S288 103.125 288 112V128C288.125 182.875 305.75 236.25 338.25 280.375C366.625 318.625 384 364 384 411.625V464C384 472.875 391.125 480 400 480S416 472.875 416 464V416C415.875 361.125 398.25 307.75 365.75 263.625Z"/>
  </symbol>

  <symbol id="icon-moon-cloud" viewBox="0 0 640 512">
    <path d="M636.312 367.625C630.746 358.219 620.172 353.469 609.537 355.531C566.496 363.781 522.523 352.437 488.812 324.437C455.102 296.406 435.789 255.156 435.789 211.25C435.789 158.531 464.15 109.562 509.803 83.437C519.258 78.062 524.203 67.594 522.398 56.781C520.596 46 512.51 37.719 501.779 35.719C490.398 33.625 472.516 32 461.072 32C371.229 32 290.744 86.344 255.977 170.438C252.617 178.594 256.443 187.938 264.592 191.344C272.645 194.781 282.006 190.875 285.396 182.688C315.188 110.594 384.166 64 461.072 64C466.018 64 472.734 64.406 479.357 65.031C432.461 98.344 403.943 152.906 403.943 211.25C403.943 264.719 427.486 314.969 468.504 349.062C505.076 379.5 551.6 393.844 598.496 389.375C562.578 426.812 513.35 448 461.072 448C409.666 448 361.277 427.375 324.828 389.938C318.734 383.594 308.658 383.531 302.314 389.688C296.031 395.875 295.908 406 302.064 412.312C344.545 455.969 401.021 480 461.072 480C528.525 480 591.654 449.781 634.229 397.062C641.07 388.562 641.91 377.031 636.312 367.625ZM237.096 217.625C221.049 183.5 186.467 160 147.283 160C105.734 160 70.033 185.25 55.23 222.5C22.889 233.875 0 264.625 0 300.75C0 346.75 37.07 384 82.848 384H235.604C281.381 384 318.449 346.75 318.449 300.75C318.449 255.375 282.002 218.375 237.096 217.625ZM235.604 352H82.848C54.609 352 31.846 329.125 31.846 300.75C31.846 273.25 53.49 251 80.607 249.75C85.459 217.125 113.324 192 147.283 192C182.859 192 211.719 219.75 214.457 254.875C220.924 251.75 228.016 249.625 235.604 249.625C263.84 249.625 286.605 272.5 286.605 300.75C286.605 329.125 263.84 352 235.604 352Z"/>
  </symbol>

  <symbol id="icon-moon" viewBox="0 0 512 512">
    <path d="M428.25 367.5C422.641 358.188 412.172 353.594 401.5 355.531C359.109 363.719 315.672 352.594 282.312 325.031C248.359 297 228.891 255.531 228.891 211.25C228.891 158.5 257.094 109.5 302.484 83.406C311.938 78 316.859 67.531 315.031 56.75C313.219 46 305.141 37.75 294.422 35.75C283.094 33.656 265.281 32 253.891 32C131.547 32 32 132.5 32 256S131.547 480 253.891 480C321.078 480 383.906 449.75 426.312 397C433.141 388.438 433.906 376.875 428.25 367.5ZM253.891 448C149.188 448 64 361.875 64 256S149.188 64 253.891 64C258.781 64 265.422 64.406 271.984 65.031C225.281 98.344 196.891 152.906 196.891 211.25C196.891 265.094 220.594 315.562 261.937 349.719C298.187 379.656 344.109 393.594 390.469 389.406C354.75 426.844 305.828 448 253.891 448Z"/>
  </symbol>

  <symbol id="icon-raindrops" viewBox="0 0 448 512">
    <path d="M224 155.359C224 128.643 192.215 71.402 173.443 39.93C170.291 34.643 165.146 32 160 32C154.855 32 149.711 34.643 146.557 39.93C127.787 71.402 96 128.643 96 155.359C96 193.268 124.654 224 160 224S224 193.268 224 155.359ZM160 192C142.355 192 128 175.562 128 155.359C128 148.887 135.066 125.623 160 80.68C184.936 125.621 192 148.887 192 155.359C192 175.562 177.645 192 160 192ZM64 224C58.855 224 53.711 226.643 50.557 231.93C31.787 263.402 0 320.643 0 347.359C0 385.268 28.654 416 64 416S128 385.268 128 347.359C128 320.643 96.215 263.402 77.443 231.93C74.291 226.643 69.146 224 64 224ZM64 384C46.355 384 32 367.562 32 347.359C32 340.887 39.066 317.623 64 272.68C88.936 317.621 96 340.887 96 347.359C96 367.562 81.645 384 64 384ZM334.596 135.506C331.137 130.502 325.568 128 320 128S308.863 130.502 305.406 135.506C271.836 184.074 192 305.162 192 358.262C192 425.494 249.309 480 320 480S448 425.494 448 358.262C448 305.162 368.164 184.074 334.596 135.506ZM320 448C267.066 448 224 407.742 224 358.262C224 330.488 261.279 258.004 320 170.883C378.721 258.004 416 330.488 416 358.262C416 407.742 372.936 448 320 448Z"/>
  </symbol>

  <symbol id="icon-smog" viewBox="0 0 640 512">
    <path d="M352 32C392.84 32 430.414 54.712 450.062 91.273C455.826 101.997 466.852 108.131 478.273 108.131C483.088 108.131 487.971 107.042 492.561 104.747C504.168 98.943 516.092 96 528 96C572.111 96 608 131.888 608 176S572.111 256 528 256H467.875C460.137 256 452.66 258.804 446.83 263.893C434.232 274.891 413.105 288 384 288C354.77 288 333.734 274.922 321.234 263.951C315.396 258.826 307.895 256 300.125 256H144C82.242 256 32 205.757 32 144S82.242 32 144 32C174.689 32 203.404 44.375 224.852 66.845C230.891 73.171 239.256 76.75 248 76.75S265.109 73.171 271.148 66.845C292.596 44.375 321.311 32 352 32M352 0C311 0 274.25 17.25 248 44.75C221.75 17.25 185 0 144 0C64.5 0 0 64.5 0 144C0 223.5 64.5 288 144 288H300.125C322.625 307.75 351.75 320 384 320S445.25 307.75 467.875 288H528C589.875 288 640 237.875 640 176S589.875 64 528 64C510 64 493.25 68.625 478.25 76.125C454 31 406.75 0 352 0L352 0ZM624 384H80C71.199 384 64 391.199 64 400C64 408.799 71.199 416 80 416H624C632.801 416 640 408.799 640 400C640 391.199 632.801 384 624 384L624 384ZM560 480H240C231.199 480 224 487.199 224 496C224 504.799 231.199 512 240 512H560C568.801 512 576 504.799 576 496C576 487.199 568.801 480 560 480L560 480ZM144 480H16C7.199 480 0 487.199 0 496C0 504.799 7.199 512 16 512H144C152.801 512 160 504.799 160 496C160 487.199 152.801 480 144 480L144 480Z"/>
  </symbol>

  <symbol id="icon-snowflakes" viewBox="0 0 640 512">
    <path d="M445.851 128C441.414 120.344 431.619 117.656 423.994 122.156L360.38 158.857L373.824 108.719C376.119 100.156 371.042 91.406 362.511 89.094C354.058 87.031 345.214 91.906 342.917 100.406L321.195 181.465L239.999 228.311V134.625L299.31 75.312C305.56 69.062 305.56 58.937 299.31 52.688S282.935 46.438 276.685 52.688L239.999 89.375V16C239.999 7.156 232.843 0 223.999 0S207.999 7.156 207.999 16V89.375L171.314 52.688C165.064 46.438 154.939 46.438 148.689 52.688S142.439 69.063 148.689 75.312L207.999 134.625V228.311L126.804 181.465L105.081 100.406C102.785 91.906 94.003 87 85.488 89.094C76.956 91.406 71.88 100.156 74.175 108.719L87.619 158.857L24.005 122.156C16.287 117.656 6.554 120.344 2.148 128C-2.274 135.656 0.351 145.438 8.007 149.844L71.611 186.539L21.443 199.969C12.914 202.281 7.851 211.031 10.132 219.562C12.039 226.719 18.505 231.438 25.568 231.438C26.943 231.438 28.333 231.25 29.724 230.906L110.828 209.164L192.005 256L110.828 302.836L29.724 281.094C21.255 279 12.414 283.906 10.132 292.438S12.914 309.719 21.443 312.031L71.611 325.461L8.007 362.156C0.351 366.562 -2.274 376.344 2.148 384C5.117 389.125 10.492 392 16.021 392C18.74 392 21.49 391.312 24.005 389.844L87.619 353.143L74.175 403.281C71.88 411.844 76.956 420.594 85.488 422.906C86.878 423.25 88.269 423.438 89.644 423.438C96.706 423.438 103.16 418.719 105.081 411.594L126.804 330.535L207.999 283.689V377.375L148.689 436.687C142.439 442.937 142.439 453.062 148.689 459.312S165.064 465.562 171.314 459.312L207.999 422.625V496C207.999 504.844 215.156 512 223.999 512S239.999 504.844 239.999 496V422.625L276.685 459.312C279.81 462.438 283.904 464 287.997 464S296.185 462.438 299.31 459.312C305.56 453.062 305.56 442.937 299.31 436.688L239.999 377.375V283.689L321.195 330.535L342.917 411.594C344.839 418.719 351.292 423.438 358.355 423.438C359.73 423.438 361.121 423.25 362.511 422.906C371.042 420.594 376.119 411.844 373.824 403.281L360.38 353.143L423.994 389.844C426.525 391.312 429.259 392 431.978 392C437.507 392 442.882 389.125 445.851 384C450.273 376.344 447.648 366.562 439.992 362.156L376.388 325.461L426.556 312.031C435.085 309.719 440.148 300.969 437.867 292.438C435.601 283.906 426.806 278.969 418.275 281.094L337.171 302.836L255.994 256L337.171 209.164L418.275 230.906C419.665 231.25 421.056 231.438 422.431 231.438C429.494 231.438 435.96 226.719 437.867 219.563C440.148 211.031 435.085 202.281 426.556 199.969L376.388 186.539L439.992 149.844C447.648 145.438 450.273 135.656 445.851 128ZM606.624 264L635.312 235.312C641.562 229.062 641.562 218.937 635.312 212.688S618.937 206.438 612.687 212.688L583.999 241.375L555.312 212.688C549.062 206.438 538.937 206.438 532.687 212.688S526.437 229.063 532.687 235.312L561.374 264L532.687 292.688C526.437 298.938 526.437 309.063 532.687 315.312C535.812 318.438 539.906 320 543.999 320S552.187 318.438 555.312 315.312L583.999 286.625L612.687 315.312C615.812 318.438 619.906 320 623.999 320S632.187 318.438 635.312 315.312C641.562 309.062 641.562 298.937 635.312 292.688L606.624 264ZM572.687 115.312C575.812 118.438 579.906 120 583.999 120S592.187 118.438 595.312 115.312C601.562 109.062 601.562 98.937 595.312 92.688L566.624 64L595.312 35.312C601.562 29.062 601.562 18.937 595.312 12.688S578.937 6.438 572.687 12.688L543.999 41.375L515.312 12.688C509.062 6.438 498.937 6.438 492.687 12.688S486.437 29.063 492.687 35.312L521.374 64L492.687 92.688C486.437 98.938 486.437 109.063 492.687 115.312C495.812 118.438 499.906 120 503.999 120S512.187 118.438 515.312 115.312L543.999 86.625L572.687 115.312Z"/>
  </symbol>

  <symbol id="icon-sun-cloud" viewBox="0 0 640 512">
    <path d="M558.25 185.625C542.125 151.5 507.375 128 468 128C426.25 128 390.375 153.25 375.5 190.5C343 201.875 320 232.625 320 268.75C320 314.75 357.25 352 403.25 352H556.75C602.75 352 640 314.75 640 268.75C640 223.375 603.375 186.375 558.25 185.625ZM556.75 320H403.25C374.875 320 352 297.125 352 268.75C352 241.25 373.75 219 401 217.75C405.875 185.125 433.875 160 468 160C503.75 160 532.75 187.75 535.5 222.875C542 219.75 549.125 217.625 556.75 217.625C585.125 217.625 608 240.5 608 268.75C608 297.125 585.125 320 556.75 320ZM404.852 402.713L405.375 405.375L320.625 388.625C314 387.25 307.75 390 304.25 395.375L256 467.25L207.875 395.25C204.25 390 198 387.25 191.5 388.5L106.75 405.25L123.5 320.5C124.75 314.25 122.125 307.75 116.75 304.125L44.75 256L116.75 207.875C122.125 204.25 124.75 197.75 123.5 191.5L106.75 106.75L191.5 123.5C198 124.75 204.25 122 207.875 116.75L256 44.75L304.125 116.75C307.75 122 314 124.75 320.5 123.5L428.75 102C437.5 100.25 443.125 91.875 441.375 83.25C439.75 74.5 431.25 68.75 422.625 70.625L324.75 90L269.25 7.125C266.25 2.75 261.25 0 256 0C250.75 0 245.75 2.75 242.75 7.125L187.25 90L89.375 70.625C84.125 69.5 78.75 71.25 75 75S69.625 84.25 70.625 89.375L90 187.25L7.125 242.75C2.75 245.75 0 250.625 0 256C0 261.375 2.75 266.25 7.125 269.25L90 324.75L70.625 422.625C69.625 427.75 71.25 433.25 75 437S84.125 442.375 89.375 441.375L187.25 422L242.75 504.875C245.75 509.25 250.75 512 256 512C261.25 512 266.25 509.25 269.25 504.875L324.75 422L422.5 441.375C427.875 442.5 433.25 440.75 436.875 437C440.75 433.25 442.25 427.75 441.25 422.625L436.211 396.676C436.11 396.155 433.711 384.031 420.438 383.924C410.467 383.844 402.929 392.929 404.852 402.713ZM247.288 180.235C266.486 178.105 284.441 183.115 298.836 192.948C304.873 197.072 313.418 196.591 319.544 190.118C326.08 183.212 324.323 171.693 316.451 166.357C293.045 150.494 263.103 143.428 231.536 150.483C188.715 160.052 156.816 193.821 149.389 237.065C137.713 305.058 189.992 364.25 256 364.25C271.888 364.25 287.045 360.775 300.703 354.548C306.797 351.77 313.989 341.936 307.191 331.595C302.809 324.93 294.47 322.244 287.202 325.531C277.654 329.85 267.12 332.25 256 332.25C211.038 332.25 175.19 293.374 180.222 247.389C184.041 212.49 212.394 184.106 247.288 180.235Z"/>
  </symbol>

  <symbol id="icon-sun-dust" viewBox="0 0 512 512">
    <path d="M240.07 376C226.697 376 216 386.838 216 400.07C216 413.301 226.697 424 240.07 424C253.303 424 264 413.16 264 400.07C264 386.838 253.162 376 240.07 376ZM320.07 456C306.697 456 296 466.838 296 480.07C296 493.301 306.697 504 320.07 504C333.303 504 344 493.16 344 480.07C344 466.838 333.162 456 320.07 456ZM160.07 456C146.697 456 136 466.838 136 480.07C136 493.301 146.697 504 160.07 504C173.303 504 184 493.16 184 480.07C184 466.838 173.162 456 160.07 456ZM123.5 191.5L106.75 106.75L191.5 123.5C197.875 124.75 204.25 122.25 207.875 116.75L256 44.75L304.125 116.75C307.875 122.25 314.75 125 321.25 123.25L407 101.75C409.875 101.125 412.375 99.625 414.375 97.625C418.25 93.75 420 88.125 418.625 82.375C416.5 73.75 407.75 68.625 399.25 70.75L324.375 89.5L269.25 7.125C266.25 2.75 261.375 0 256 0C250.75 0 245.75 2.5 242.75 7.125L187.25 90L89.625 70.625H89.5C88.5 70.375 87.5 70.625 86.5 70.625C85.375 70.625 84.375 70.375 83.25 70.625C81.25 71 79.25 71.875 77.5 73C77 73.25 76.75 73.875 76.25 74.25C75.125 75.25 73.999 76.25 73.125 77.375C71.875 79.125 71.125 81.125 70.75 83.25C70.5 84.25 70.75 85.25 70.75 86.25S70.5 88.375 70.75 89.375V89.5L89.999 187.25L7.125 242.75C2.625 245.75 0 250.625 0 256C0 261.25 2.75 266.25 7.125 269.25L89.5 324.375L70.75 399.25C68.625 407.75 73.75 416.5 82.375 418.625C88.125 420 93.75 418.25 97.625 414.375C99.625 412.375 101.125 409.875 101.75 407L123.25 321.25C125 314.75 122.25 307.875 116.75 304.125L44.75 256L116.75 207.875C122.25 204.25 124.75 197.75 123.5 191.5ZM480.07 184C493.303 184 504 173.16 504 160.07C504 146.838 493.162 136 480.07 136C466.697 136 456 146.838 456 160.07C456 173.301 466.697 184 480.07 184ZM400.07 376C386.697 376 376 386.838 376 400.07C376 413.301 386.697 424 400.07 424C413.303 424 424 413.16 424 400.07C424 386.838 413.162 376 400.07 376ZM480.07 456C466.697 456 456 466.838 456 480.07C456 493.301 466.697 504 480.07 504C493.303 504 504 493.16 504 480.07C504 466.838 493.162 456 480.07 456ZM320.07 296C306.697 296 296 306.838 296 320.07C296 333.301 306.697 344 320.07 344C333.303 344 344 333.16 344 320.07C344 306.838 333.162 296 320.07 296ZM480.07 296C466.697 296 456 306.838 456 320.07C456 333.301 466.697 344 480.07 344C493.303 344 504 333.16 504 320.07C504 306.838 493.162 296 480.07 296ZM400.07 216C386.697 216 376 226.838 376 240.07C376 253.301 386.697 264 400.07 264C413.303 264 424 253.16 424 240.07C424 226.838 413.162 216 400.07 216ZM205.969 205.969C232.594 179.375 275.969 179.312 302.625 205.969C308.875 212.219 319 212.219 325.25 205.969S331.5 189.594 325.25 183.344C286.125 144.219 222.469 144.156 183.344 183.344C144.219 222.469 144.219 286.125 183.344 325.25C186.469 328.375 190.562 329.938 194.656 329.938S202.844 328.375 205.969 325.25C212.219 319 212.219 308.875 205.969 302.625C179.312 275.969 179.312 232.625 205.969 205.969Z"/>
  </symbol>

  <symbol id="icon-sun-haze" viewBox="0 0 640 512">
    <path d="M80 352H400C408.801 352 416 344.799 416 336C416 327.199 408.801 320 400 320H80C71.199 320 64 327.199 64 336C64 344.799 71.199 352 80 352ZM576 416C576 407.199 568.801 400 560 400H16C7.201 400 0 407.199 0 416C0 424.799 7.201 432 16 432H560C568.801 432 576 424.799 576 416ZM208 480H80C71.199 480 64 487.199 64 496C64 504.799 71.199 512 80 512H208C216.801 512 224 504.799 224 496C224 487.199 216.801 480 208 480ZM480 335.875C480 344.674 487.199 351.875 496 351.875H624C632.801 351.875 640 344.674 640 335.875C640 327.074 632.801 319.875 624 319.875H496C487.199 319.875 480 327.074 480 335.875ZM624 480H304C295.199 480 288 487.199 288 496C288 504.799 295.199 512 304 512H624C632.801 512 640 504.799 640 496C640 487.199 632.801 480 624 480ZM320 128C256.719 128 202.25 175.188 193.297 237.719C192.047 246.469 198.125 254.594 206.875 255.844C207.641 255.938 208.406 256 209.156 256C217 256 223.844 250.25 224.984 242.281C231.688 195.375 272.531 160 320 160S408.328 195.375 415.016 242.25C416.25 251.031 424.344 256.844 433.125 255.844C441.875 254.594 447.953 246.5 446.703 237.75C437.766 175.188 383.297 128 320 128ZM113.953 247.656C118.188 255.469 127.938 258.312 135.656 254.031C143.422 249.813 146.281 240.094 142.047 232.344L104.312 163.156L195.359 143.656C201.141 142.406 205.766 138.094 207.391 132.406L233.359 41.469L311.125 93.312C316.5 96.875 323.5 96.875 328.875 93.312L406.641 41.469L432.609 132.406C434.234 138.094 438.859 142.406 444.641 143.656L535.687 163.156L497.953 232.344C493.719 240.094 496.578 249.812 504.344 254.031C506.766 255.375 509.391 256 511.984 256C517.656 256 523.141 253 526.047 247.656L574.047 159.656C576.469 155.219 576.641 149.906 574.547 145.312C572.437 140.75 568.281 137.406 563.359 136.344L460.75 114.375L431.391 11.594C429.984 6.688 426.312 2.75 421.516 0.969C416.734 -0.781 411.359 -0.125 407.125 2.688L320 60.781L232.875 2.688C228.625 -0.125 223.266 -0.781 218.484 0.969C213.688 2.75 210.016 6.688 208.609 11.594L179.25 114.375L76.641 136.344C71.719 137.406 67.562 140.75 65.453 145.312C63.359 149.906 63.531 155.219 65.953 159.656L113.953 247.656Z"/>
  </symbol>

  <symbol id="icon-sun" viewBox="0 0 512 512">
    <path d="M256 128.008C185.422 128.008 128.002 185.426 128.002 256S185.422 383.99 256 383.99S383.998 326.574 383.998 256S326.578 128.008 256 128.008ZM256 351.994C202.98 351.994 160.002 309.016 160.002 256C160.002 202.982 202.98 160.006 256 160.006S351.998 202.982 351.998 256C351.998 309.016 309.019 351.994 256 351.994ZM453.701 256L506.574 179.816C512.496 171.287 513.636 160.475 509.668 150.912C505.699 141.352 497.246 134.539 487.058 132.695L395.795 116.197L379.31 24.953C377.451 14.734 370.638 6.299 361.06 2.33C351.529 -1.639 340.716 -0.451 332.185 5.424L256 58.326L179.798 5.455C171.298 -0.451 160.548 -1.67 150.955 2.33C141.377 6.299 134.548 14.734 132.689 24.953L116.205 116.197L24.957 132.695C14.754 134.539 6.3 141.352 2.332 150.912C-1.637 160.475 -0.496 171.287 5.425 179.816L58.298 256L5.425 332.182C-0.496 340.713 -1.637 351.523 2.332 361.086S14.754 377.459 24.941 379.303L116.205 395.803L132.689 487.047C134.548 497.264 141.377 505.701 150.955 509.67C154.705 511.232 158.642 511.982 162.548 511.982C168.627 511.982 174.627 510.139 179.798 506.576L256 453.674L332.201 506.545C340.701 512.451 351.451 513.67 361.045 509.67C370.623 505.701 377.451 497.264 379.31 487.047L395.795 395.803L487.043 379.303C497.246 377.459 505.699 370.648 509.668 361.086S512.496 340.713 506.574 332.182L453.701 256ZM379.185 366.273C372.607 367.461 367.466 372.617 366.279 379.178L350.451 480.266L265.125 421.051C259.625 417.238 252.375 417.238 246.875 421.051L164.189 481.359L145.72 379.178C144.533 372.617 139.392 367.461 132.814 366.273L31.707 350.43L90.908 265.123C94.72 259.625 94.72 252.375 90.908 246.875L30.629 164.193L132.814 145.727C139.392 144.539 144.533 139.383 145.72 132.82L161.548 31.734L246.875 90.949C252.375 94.76 259.625 94.76 265.125 90.949L347.81 30.641L366.279 132.82C367.466 139.383 372.607 144.539 379.185 145.727L480.293 161.568L421.091 246.875C417.279 252.375 417.279 259.625 421.091 265.123L478.793 348.275L379.185 366.273Z"/>
  </symbol>

  <symbol id="icon-sunrise" viewBox="0 0 576 512">
    <path d="M287.75 352.25C239.037 352.25 197.824 383.605 182.539 427.105C181.006 431.471 180.977 448.1 197.592 448.1C204.363 448.1 210.094 443.744 212.32 437.453C223.289 406.439 252.988 384.199 287.75 384.199C322.629 384.199 352.24 406.443 363.277 437.463C365.436 443.523 370.889 448.1 378.344 448.1C389.27 448.1 396.68 437.336 393.082 427.1C377.795 383.602 336.568 352.25 287.75 352.25ZM91 440.959C93.967 445.418 98.973 448.1 104.336 448.1C117.123 448.1 124.75 433.871 117.656 423.248L90.25 382.203L176.25 364.979C182.625 363.73 187.625 358.863 188.875 352.498L206.125 266.633L279.125 315.182C284.5 318.801 291.5 318.801 296.875 315.182L369.875 266.633L387.125 352.498C388.25 358.738 393.25 363.73 399.75 364.979L485.75 382.203L458.355 423.23C451.258 433.861 458.889 448.1 471.686 448.1C477.037 448.1 482.035 445.432 485.008 440.988L525.75 380.08C528.75 375.713 529.25 369.971 527.25 365.104S520.75 356.617 515.5 355.494L416.5 335.775L396.75 236.93C395.75 231.688 392.125 227.318 387.125 225.197C382.125 223.201 376.5 223.699 372.125 226.695L288.125 282.607L204.125 226.695C199.75 223.824 194 223.201 189.125 225.197C184.25 227.195 180.625 231.688 179.5 236.93L159.75 335.775L60.75 355.494C55.5 356.492 51.125 360.111 49 365.104S47.5 375.713 50.5 380.08L91 440.959ZM560 480.049H16C7.199 480.049 0 487.238 0 496.025C0 504.811 7.199 512 16 512H560C568.801 512 576 504.811 576 496.025C576 487.238 568.801 480.049 560 480.049ZM203.312 123.312L272 54.625V208C272 216.844 279.156 224 288 224S304 216.844 304 208V54.625L372.688 123.312C375.812 126.438 379.906 128 384 128S392.188 126.438 395.312 123.312C401.562 117.062 401.562 106.937 395.312 100.688L299.312 4.688C293.062 -1.562 282.937 -1.562 276.688 4.688L180.688 100.688C174.438 106.938 174.438 117.063 180.688 123.312S197.062 129.562 203.312 123.312Z"/>
  </symbol>

  <symbol id="icon-sunset" viewBox="0 0 576 512">
    <path d="M91 440.959C93.967 445.418 98.973 448.1 104.336 448.1C117.123 448.1 124.75 433.871 117.656 423.248L90.25 382.203L176.25 364.979C182.625 363.73 187.625 358.863 188.875 352.498L206.125 266.633L279.125 315.182C284.5 318.801 291.5 318.801 296.875 315.182L369.875 266.633L387.125 352.498C388.25 358.738 393.25 363.73 399.75 364.979L485.75 382.203L458.355 423.23C451.258 433.861 458.889 448.1 471.686 448.1C477.037 448.1 482.035 445.432 485.008 440.988L525.75 380.08C528.75 375.713 529.25 369.971 527.25 365.104S520.75 356.617 515.5 355.494L416.5 335.775L396.75 236.93C395.75 231.688 392.125 227.318 387.125 225.197C382.125 223.201 376.5 223.699 372.125 226.695L288.125 282.607L204.125 226.695C199.75 223.824 194 223.201 189.125 225.197C184.25 227.195 180.625 231.688 179.5 236.93L159.75 335.775L60.75 355.494C55.5 356.492 51.125 360.111 49 365.104S47.5 375.713 50.5 380.08L91 440.959ZM287.75 352.25C239.037 352.25 197.824 383.605 182.539 427.105C181.006 431.471 180.977 448.1 197.592 448.1C204.363 448.1 210.094 443.744 212.32 437.453C223.289 406.439 252.988 384.199 287.75 384.199C322.629 384.199 352.24 406.443 363.277 437.463C365.436 443.523 370.889 448.1 378.344 448.1C389.27 448.1 396.68 437.336 393.082 427.1C377.795 383.602 336.568 352.25 287.75 352.25ZM560 480.049H16C7.199 480.049 0 487.238 0 496.025C0 504.811 7.199 512 16 512H560C568.801 512 576 504.811 576 496.025C576 487.238 568.801 480.049 560 480.049ZM276.688 219.312C279.812 222.438 283.906 224 288 224S296.188 222.438 299.312 219.312L395.312 123.312C401.562 117.062 401.562 106.937 395.312 100.688S378.937 94.438 372.688 100.688L304 169.375V16C304 7.156 296.844 0 288 0S272 7.156 272 16V169.375L203.312 100.688C197.062 94.438 186.937 94.438 180.688 100.688S174.438 117.063 180.688 123.312L276.688 219.312Z"/>
  </symbol>

  <symbol id="icon-temperature-arrow-down" viewBox="0 0 512 512">
    <path d="M159.998 354.68V303.832C159.998 294.963 152.873 287.842 144 287.842S128.002 294.963 128.002 303.832V354.68C106.006 362.551 92.758 385.037 96.758 408.025C100.633 431.137 120.629 447.879 144 447.879S187.368 431.137 191.243 408.025C195.243 385.037 181.995 362.551 159.998 354.68ZM223.987 79.955C223.987 35.855 188.118 0 144 0S64.014 35.855 64.014 79.955V321.697C20.895 365.674 21.395 436.135 65.139 479.486C108.756 522.838 179.245 522.838 222.862 479.486C266.606 436.135 267.106 365.674 223.987 321.697V79.955ZM219.864 425.141C208.991 457.748 178.37 479.736 144 479.736S79.01 457.748 68.137 425.141S68.512 356.678 96.008 336.064V79.955C96.008 53.471 117.504 31.982 144 31.982S191.993 53.471 191.993 79.955V336.064C219.489 356.678 230.737 392.533 219.864 425.141ZM507.313 356.688C501.063 350.438 490.938 350.438 484.688 356.688L416 425.375V48C416 39.156 408.844 32 400 32S384 39.156 384 48V425.375L315.313 356.688C312.188 353.562 308.094 352 304 352S295.813 353.562 292.688 356.688C286.438 362.938 286.438 373.063 292.688 379.312L388.688 475.312C394.938 481.562 405.063 481.562 411.313 475.312L507.313 379.312C513.563 373.062 513.563 362.938 507.313 356.688Z"/>
  </symbol>

  <symbol id="icon-temperature-arrow-up" viewBox="0 0 512 512">
    <path d="M223.987 79.955C223.987 35.855 188.118 0 144 0S64.014 35.855 64.014 79.955V321.697C20.895 365.674 21.395 436.135 65.139 479.486C108.756 522.838 179.245 522.838 222.862 479.486C266.606 436.135 267.106 365.674 223.987 321.697V79.955ZM219.864 425.141C208.991 457.748 178.37 479.736 144 479.736S79.01 457.748 68.137 425.141S68.512 356.678 96.008 336.064V79.955C96.008 53.471 117.504 31.982 144 31.982S191.993 53.471 191.993 79.955V336.064C219.489 356.678 230.737 392.533 219.864 425.141ZM159.998 354.68V79.955C159.998 71.086 152.873 63.965 144 63.965S128.002 71.086 128.002 79.955V354.68C106.006 362.551 92.758 385.037 96.758 408.025C100.633 431.137 120.629 447.879 144 447.879S187.368 431.137 191.243 408.025C195.243 385.037 181.995 362.551 159.998 354.68ZM507.313 132.688L411.313 36.688C405.063 30.438 394.938 30.438 388.688 36.688L292.688 132.688C286.438 138.938 286.438 149.063 292.688 155.312S309.063 161.562 315.313 155.312L384 86.625V464C384 472.844 391.157 480 400 480S416 472.844 416 464V86.625L484.688 155.312C487.813 158.438 491.907 160 496 160S504.188 158.438 507.313 155.312C513.563 149.062 513.563 138.938 507.313 132.688Z"/>
  </symbol>

  <symbol id="icon-temperature-half" viewBox="0 0 320 512">
    <path d="M208.001 384C208.001 410.5 186.501 432 160.001 432S112.001 410.5 112.001 384C112.001 363.125 125.376 345.375 144.001 338.75V208C144.001 199.125 151.126 192 160.001 192S176.001 199.125 176.001 208V338.75C194.626 345.375 208.001 363.125 208.001 384ZM256 299.375C275.875 321.875 288 351.5 288 384C288 454.75 230.75 512 160.001 512C159.751 512 159.376 512 159.126 512C88.751 511.5 31.627 453.625 32.002 383.375C32.127 351.125 44.252 321.75 64.002 299.375V96C64.002 43 107.001 0 160.001 0S256 43 256 96V299.375ZM256 384C256 344.125 233.125 321.875 224 311.5V96C224 60.75 195.251 32 160.001 32S96.001 60.75 96.001 96V311.5C86.501 322.125 64.252 344 64.002 383.5C63.752 436.25 106.626 479.625 159.376 480H160.001C212.876 480 256 436.875 256 384Z"/>
  </symbol>

  <symbol id="icon-temperature-quarter" viewBox="0 0 320 512">
    <path d="M208.001 384C208.001 410.5 186.501 432 160.001 432S112.001 410.5 112.001 384C112.001 363.125 125.376 345.375 144.001 338.75V272C144.001 263.125 151.126 256 160.001 256S176.001 263.125 176.001 272V338.75C194.626 345.375 208.001 363.125 208.001 384ZM256 299.375C275.875 321.875 288 351.5 288 384C288 454.75 230.75 512 160.001 512C159.751 512 159.376 512 159.126 512C88.751 511.5 31.627 453.625 32.002 383.375C32.127 351.125 44.252 321.75 64.002 299.375V96C64.002 43 107.001 0 160.001 0S256 43 256 96V299.375ZM256 384C256 344.125 233.125 321.875 224 311.5V96C224 60.75 195.251 32 160.001 32S96.001 60.75 96.001 96V311.5C86.501 322.125 64.252 344 64.002 383.5C63.752 436.25 106.626 479.625 159.376 480H160.001C212.876 480 256 436.875 256 384Z"/>
  </symbol>

  <symbol id="icon-tornado" viewBox="0 0 448 512">
    <path d="M387.408 199.594C363.408 172.156 342.69 148.438 344.627 120.438C346.44 94.375 367.565 64.188 409.19 28.094C414.25 23.719 416.031 16.656 413.719 10.406C411.375 4.156 405.408 0 398.721 0L16.168 0.031C7.481 0.031 0.418 6.938 0.168 15.594C-4.676 199.156 96.104 252.625 185.008 299.781C186.941 300.809 188.811 301.812 190.725 302.83V303.937H192.805C269.44 344.752 328.508 380.027 315.691 494.219C314.941 500.969 318.535 507.437 324.629 510.406C326.848 511.469 329.223 512 331.598 512C335.723 512 339.815 510.406 342.877 507.344C413.563 437.188 447.969 376.656 448 322.219C448.031 268.969 415.813 232.125 387.408 199.594ZM32.043 32.031L358.627 32C329.379 62.906 314.598 90.812 312.723 118.219C312.49 121.557 312.754 124.727 312.899 127.937H47.732C38.127 101.617 32.414 70.238 32.043 32.031ZM200.006 271.531C147.961 243.908 94.916 215.605 62.717 159.938H320.217C329.721 182.131 346.67 201.617 363.315 220.656C377.506 236.9 391.807 253.516 401.981 271.938H200.762C200.51 271.805 200.258 271.664 200.006 271.531ZM256.822 303.938H414.02C415.19 309.828 416.004 315.859 416 322.219C415.969 360.25 394.065 403.656 349.19 454.25C345.818 376.967 305.795 335.469 256.822 303.938Z"/>
  </symbol>

  <symbol id="icon-volcano" viewBox="0 0 512 512">
    <path d="M340.687 116.688L292.687 164.688C286.437 170.938 286.437 181.063 292.687 187.312C295.812 190.438 299.906 192 304 192S312.187 190.438 315.312 187.312L363.312 139.312C369.562 133.062 369.562 122.937 363.312 116.688S346.937 110.438 340.687 116.688ZM112 96C120.843 96 128 88.844 128 80C128 62.344 142.359 48 160 48C169.531 48 178.547 52.375 184.734 60.031C188.156 64.281 193.343 66.344 198.968 65.875C204.39 65.25 209.14 61.906 211.547 57C218.984 41.812 236.437 32 256 32S293.015 41.812 300.453 57C302.859 61.906 307.609 65.25 313.031 65.875C318.453 66.344 323.843 64.281 327.265 60.031C333.453 52.375 342.468 48 352 48C369.64 48 384 62.344 384 80C384 88.844 391.156 96 400 96S416 88.844 416 80C416 44.719 387.297 16 352 16C339.672 16 327.828 19.562 317.672 26.125C302.718 9.844 280.218 0 256 0S209.281 9.844 194.328 26.125C184.172 19.562 172.328 16 160 16C124.703 16 96 44.719 96 80C96 88.844 103.156 96 112 96ZM148.687 116.688C142.437 122.938 142.437 133.063 148.687 139.312L196.687 187.312C199.812 190.438 203.906 192 208 192S216.187 190.438 219.312 187.312C225.562 181.062 225.562 170.937 219.312 164.688L171.312 116.688C165.062 110.438 154.937 110.438 148.687 116.688ZM502.568 447.312L324.402 237.393C317.179 228.883 306.724 224 295.732 224H216.267C205.275 224 194.82 228.883 187.597 237.393L9.431 447.313C-12.008 472.572 5.467 512 38.099 512H473.9C506.533 512 524.008 472.572 502.568 447.312ZM211.994 258.1C213.127 256.766 214.683 256 216.267 256H295.732C297.316 256 298.873 256.766 300.006 258.1L363.945 333.436L345.859 351.531C339.406 357.937 330.75 361.156 321.765 360.844C312.672 360.437 304.453 356.375 298.64 349.375L281.484 328.781C259.64 302.625 221.187 298.094 193.922 318.562L179.218 329.594C173.687 333.719 166.875 336 160 336H145.877L211.994 258.1ZM479.197 476.293C477.48 480 474.785 480 473.9 480H38.099C37.215 480 34.519 480 32.802 476.293C32.011 474.586 31.095 471.24 33.828 468.02L118.718 368H160C173.734 368 187.359 363.469 198.39 355.219L213.125 344.187C226.75 333.875 246.015 336.219 256.89 349.281L274.047 369.875C285.531 383.656 302.39 392 320.297 392.812C321.265 392.875 322.234 392.906 323.203 392.906C340.109 392.906 356.468 386.156 368.484 374.156L384.718 357.912L478.172 468.02C480.906 471.24 479.988 474.586 479.197 476.293ZM240 96V176C240 184.844 247.156 192 256 192S272 184.844 272 176V96C272 87.156 264.843 80 256 80S240 87.156 240 96Z"/>
  </symbol>

  <symbol id="icon-wind" viewBox="0 0 512 512">
    <path d="M16 192H368C412.125 192 448 156.125 448 112S412.125 32 368 32H336C327.156 32 320 39.156 320 48S327.156 64 336 64H368C394.469 64 416 85.531 416 112S394.469 160 368 160H16C7.156 160 0 167.156 0 176S7.156 192 16 192ZM176 320H16C7.156 320 0 327.156 0 336S7.156 352 16 352H176C202.469 352 224 373.531 224 400S202.469 448 176 448H144C135.156 448 128 455.156 128 464S135.156 480 144 480H176C220.125 480 256 444.125 256 400S220.125 320 176 320ZM424 240H16C7.156 240 0 247.156 0 256S7.156 272 16 272H424C454.875 272 480 297.125 480 328S454.875 384 424 384H400C391.156 384 384 391.156 384 400S391.156 416 400 416H424C472.531 416 512 376.531 512 328S472.531 240 424 240Z"/>
  </symbol>
</svg>